<svg xmlns="http://www.w3.org/2000/svg" width="14.041" height="12.627" viewBox="0 0 14.041 12.627">
  <g id="comment" transform="translate(0 -0.5)">
    <path id="Path_51" data-name="Path 51" d="M13.829,11.881a9.988,9.988,0,0,1-2.168-1.711A6.314,6.314,0,0,0,1.849,2.349a6.314,6.314,0,0,0,7.529,9.985,6.41,6.41,0,0,0,4.364.306.415.415,0,0,0,.087-.759Zm-4.221-.375a.415.415,0,0,0-.443-.007A5.487,5.487,0,1,1,10.8,9.963a.414.414,0,0,0,.017.5,8.948,8.948,0,0,0,1.708,1.56,4.567,4.567,0,0,1-2.92-.516Zm0,0" transform="translate(0 0)" fill="#565656"/>
  </g>
</svg>
