<svg xmlns="http://www.w3.org/2000/svg" xmlns:xlink="http://www.w3.org/1999/xlink" width="121" height="121" viewBox="0 0 121 121">
  <defs>
    <filter id="Ellipse_2" x="0" y="0" width="121" height="121" filterUnits="userSpaceOnUse">
      <feOffset dy="3" input="SourceAlpha"/>
      <feGaussianBlur stdDeviation="12.5" result="blur"/>
      <feFlood flood-color="#1f1f1f" flood-opacity="0.059"/>
      <feComposite operator="in" in2="blur"/>
      <feComposite in="SourceGraphic"/>
    </filter>
  </defs>
  <g id="google" transform="translate(-99.5 -671.5)">
    <g transform="matrix(1, 0, 0, 1, 99.5, 671.5)" filter="url(#Ellipse_2)">
      <g id="Ellipse_2-2" data-name="Ellipse 2" transform="translate(37.5 34.5)" fill="#fff" stroke="#919191" stroke-width="0.2">
        <circle cx="23" cy="23" r="23" stroke="none"/>
        <circle cx="23" cy="23" r="22.9" fill="none"/>
      </g>
    </g>
    <g id="google-2" data-name="google" transform="translate(147.716 722)">
      <path id="Path_5" data-name="Path 5" d="M37.4,0a7.24,7.24,0,0,0-6.511,4.036L33.333,5.9A4.278,4.278,0,0,1,37.4,2.964a4.2,4.2,0,0,1,2.671.955l2.111-2.108A7.225,7.225,0,0,0,37.4,0Z" transform="translate(-24.864 0)" fill="#565656"/>
      <path id="Path_6" data-name="Path 6" d="M30.9,4.035,33.341,5.9a4.278,4.278,0,0,1,4.069-2.936,4.2,4.2,0,0,1,2.671.955l2.111-2.108A7.228,7.228,0,0,0,37.411,0" transform="translate(-24.872 0)" fill="#565656"/>
      <path id="Path_7" data-name="Path 7" d="M8.252,142.081c0-.067,0-.133.008-.2a4.319,4.319,0,0,1,.209-1.146l-2.441-1.865a7.232,7.232,0,0,0-.739,3.011c0,.066-.006.132-.006.2s0,.133.006.2a7.238,7.238,0,0,0,.737,3.008l2.44-1.868a4.306,4.306,0,0,1-.207-1.14C8.257,142.214,8.252,142.148,8.252,142.081Z" transform="translate(0 -134.837)" fill="#565656"/>
      <g id="Group_4" data-name="Group 4" transform="translate(6.027 4.035)">
        <path id="Path_8" data-name="Path 8" d="M30.86,145.288l2.44-1.868a4.306,4.306,0,0,1-.207-1.14c0-.066-.008-.132-.008-.2s0-.133.008-.2a4.319,4.319,0,0,1,.209-1.146l-2.441-1.864" transform="translate(-30.86 -138.872)" fill="#565656"/>
      </g>
      <path id="Path_9" data-name="Path 9" d="M39.812,297.911a4.488,4.488,0,0,1-2.409.633,4.292,4.292,0,0,1-4.07-2.936l-2.441,1.864a7.282,7.282,0,0,0,8.453,3.774A6.718,6.718,0,0,0,42.13,299.7Z" transform="translate(-24.864 -287.018)" fill="#565656"/>
      <path id="Path_10" data-name="Path 10" d="M30.9,359.768a7.281,7.281,0,0,0,8.453,3.774A6.717,6.717,0,0,0,42.138,362l-2.318-1.792a4.488,4.488,0,0,1-2.409.633,4.289,4.289,0,0,1-2.526-.824" transform="translate(-24.872 -349.314)" fill="#565656"/>
      <path id="Path_11" data-name="Path 11" d="M263.977,201.32h-6.693v2.79h3.824a3.5,3.5,0,0,1-1.482,2.253l2.318,1.792a6.652,6.652,0,0,0,1.543-2.187,8.145,8.145,0,0,0,.655-3.3A6.591,6.591,0,0,0,263.977,201.32Z" transform="translate(-244.677 -195.47)" fill="#565656"/>
      <g id="Group_5" data-name="Group 5" transform="translate(12.607 5.85)">
        <path id="Path_12" data-name="Path 12" d="M417.636,208.154a6.7,6.7,0,0,0,1.548-2.2,8.124,8.124,0,0,0,.652-3.292,6.56,6.56,0,0,0-.167-1.346h-.416" transform="translate(-412.977 -201.32)" fill="#565656"/>
        <path id="Path_13" data-name="Path 13" d="M257.284,241.32v1.627H261" transform="translate(-257.284 -240.158)" fill="#565656"/>
      </g>
    </g>
  </g>
</svg>
