<svg xmlns="http://www.w3.org/2000/svg" width="26.862" height="17.129" viewBox="0 0 26.862 17.129">
  <g id="group" transform="translate(0.1 -92.15)">
    <g id="Group_32" data-name="Group 32" transform="translate(0 92.25)">
      <path id="Path_49" data-name="Path 49" d="M23.058,99.7a3.044,3.044,0,1,0-3.492,0,5.274,5.274,0,0,0-1.8,1.055A6.825,6.825,0,0,0,15.3,99.409a3.856,3.856,0,1,0-3.988,0,6.881,6.881,0,0,0-2.442,1.329A5.317,5.317,0,0,0,7.09,99.7a3.044,3.044,0,1,0-3.492,0A5.343,5.343,0,0,0,0,104.753v.348a.023.023,0,0,0,.021.021H6.473a7.1,7.1,0,0,0-.058.892v.359a2.805,2.805,0,0,0,2.806,2.806H17.4a2.805,2.805,0,0,0,2.806-2.806v-.359a7.1,7.1,0,0,0-.058-.892H26.64a.023.023,0,0,0,.021-.021v-.348A5.363,5.363,0,0,0,23.058,99.7Zm-3.946-2.5a2.2,2.2,0,1,1,2.242,2.2H21.27A2.2,2.2,0,0,1,19.113,97.2Zm-8.831-1.1a3.012,3.012,0,1,1,3.186,3.007H13.12A3.017,3.017,0,0,1,10.282,96.106ZM3.128,97.2A2.2,2.2,0,1,1,5.37,99.4H5.286A2.2,2.2,0,0,1,3.128,97.2Zm3.492,7.069H.855A4.507,4.507,0,0,1,5.3,100.247H5.36a4.461,4.461,0,0,1,2.875,1.071A6.926,6.926,0,0,0,6.621,104.272Zm12.729,2.1a1.965,1.965,0,0,1-1.962,1.962H9.211a1.965,1.965,0,0,1-1.962-1.962v-.359a6.06,6.06,0,0,1,5.871-6.051c.058.005.121.005.179.005s.121,0,.179-.005a6.06,6.06,0,0,1,5.871,6.051Zm.628-2.1a6.908,6.908,0,0,0-1.6-2.933,4.482,4.482,0,0,1,2.9-1.092h.063a4.507,4.507,0,0,1,4.442,4.025Z" transform="translate(0 -92.25)" fill="#c5c5c5" stroke="#c5c5c5" stroke-width="0.2"/>
    </g>
  </g>
</svg>
