<svg xmlns="http://www.w3.org/2000/svg" width="46" height="46" viewBox="0 0 46 46">
  <g id="Group_hover" transform="translate(-274 -790)">
    <g id="Group_74" data-name="Group 74" transform="translate(109 -2)">
      <g id="Ellipse_1" data-name="Ellipse 1" transform="translate(168 795)" fill="#d06eff" stroke="#fff" stroke-width="0.2">
        <circle cx="20" cy="20" r="20" stroke="none"/>
        <circle cx="20" cy="20" r="19.9" fill="none"/>
      </g>
      <g id="Ellipse_3" data-name="Ellipse 3" transform="translate(165 792)" fill="none" stroke="#d06eff" stroke-width="0.2">
        <circle cx="23" cy="23" r="23" stroke="none"/>
        <circle cx="23" cy="23" r="22.9" fill="none"/>
      </g>
    </g>
    <g id="group" transform="translate(285.399 713.75)">
      <g id="Group_32" data-name="Group 32" transform="translate(0 92.25)">
        <path id="Path_49" data-name="Path 49" d="M19.494,98.547a2.573,2.573,0,1,0-2.952,0,4.459,4.459,0,0,0-1.521.892A5.77,5.77,0,0,0,12.934,98.3a3.26,3.26,0,1,0-3.372,0A5.818,5.818,0,0,0,7.5,99.426a4.5,4.5,0,0,0-1.5-.874,2.573,2.573,0,1,0-2.952,0A4.517,4.517,0,0,0,0,102.82v.294a.019.019,0,0,0,.018.018H5.472a6,6,0,0,0-.049.754v.3A2.372,2.372,0,0,0,7.8,106.562h6.913a2.372,2.372,0,0,0,2.373-2.373v-.3a6,6,0,0,0-.049-.754h5.49a.019.019,0,0,0,.018-.018v-.294A4.534,4.534,0,0,0,19.494,98.547Zm-3.336-2.11a1.86,1.86,0,1,1,1.9,1.86h-.071A1.857,1.857,0,0,1,16.158,96.438ZM8.692,95.51a2.547,2.547,0,1,1,2.694,2.542h-.294A2.55,2.55,0,0,1,8.692,95.51Zm-6.048.928a1.86,1.86,0,1,1,1.9,1.86H4.469A1.86,1.86,0,0,1,2.645,96.438ZM5.6,102.414H.723a3.811,3.811,0,0,1,3.755-3.4h.054a3.771,3.771,0,0,1,2.431.905A5.856,5.856,0,0,0,5.6,102.414Zm10.762,1.775a1.662,1.662,0,0,1-1.659,1.659H7.787a1.662,1.662,0,0,1-1.659-1.659v-.3a5.123,5.123,0,0,1,4.964-5.116c.049,0,.1,0,.152,0s.1,0,.152,0a5.123,5.123,0,0,1,4.964,5.116Zm.531-1.775a5.84,5.84,0,0,0-1.351-2.48,3.789,3.789,0,0,1,2.453-.923h.054a3.811,3.811,0,0,1,3.755,3.4Z" transform="translate(0 -92.25)" fill="#fff" stroke="#fff" stroke-width="0.2"/>
      </g>
    </g>
  </g>
</svg>
