<svg xmlns="http://www.w3.org/2000/svg" width="20.153" height="20.155" viewBox="0 0 20.153 20.155">
  <path id="home" d="M20.112,8.766l0,0L11.888.543a1.855,1.855,0,0,0-2.624,0L1.047,8.76l-.008.008A1.855,1.855,0,0,0,2.273,11.93l.057,0h.328v6.05A2.174,2.174,0,0,0,4.83,20.154H8.046a.591.591,0,0,0,.59-.59V14.82a.992.992,0,0,1,.991-.991h1.9a.992.992,0,0,1,.991.991v4.744a.591.591,0,0,0,.59.59h3.217a2.174,2.174,0,0,0,2.172-2.172v-6.05h.3a1.856,1.856,0,0,0,1.313-3.167Zm-.836,1.788a.67.67,0,0,1-.477.2H17.9a.59.59,0,0,0-.59.59v6.641a.992.992,0,0,1-.991.991H13.7V14.82a2.174,2.174,0,0,0-2.172-2.172h-1.9A2.174,2.174,0,0,0,7.456,14.82v4.153H4.83a.992.992,0,0,1-.991-.991V11.342a.59.59,0,0,0-.59-.59H2.342A.674.674,0,0,1,1.877,9.6h0L10.1,1.378a.674.674,0,0,1,.954,0L19.273,9.6l0,0a.676.676,0,0,1,0,.953Zm0,0" transform="translate(-0.5 0.001)" fill="#c5c5c5"/>
</svg>
