<svg id="like" xmlns="http://www.w3.org/2000/svg" width="13.752" height="12.141" viewBox="0 0 13.752 12.141">
  <g id="Group_52" data-name="Group 52">
    <path id="Path_50" data-name="Path 50" d="M10.1,30a3.256,3.256,0,0,0-2.033.7,4.632,4.632,0,0,0-1.19,1.431A4.632,4.632,0,0,0,5.686,30.7,3.256,3.256,0,0,0,3.653,30,3.733,3.733,0,0,0,0,33.962c0,2.44,1.959,4.11,4.925,6.638.5.429,1.075.916,1.668,1.435a.43.43,0,0,0,.566,0c.593-.519,1.164-1.005,1.668-1.435,2.966-2.527,4.925-4.2,4.925-6.637A3.733,3.733,0,0,0,10.1,30Z" transform="translate(0 -30)" fill="#ae58d7"/>
  </g>
</svg>
