<svg xmlns="http://www.w3.org/2000/svg" width="16.353" height="16.353" viewBox="0 0 16.353 16.353">
  <path id="password_view" d="M9.305,5.334a5.664,5.664,0,0,1,.866-.065c2.6,0,5.042,1.872,6.464,4.9a12.447,12.447,0,0,1-.736,1.34.817.817,0,1,0,1.389.858,12.888,12.888,0,0,0,.989-1.88.817.817,0,0,0,0-.646c-1.651-3.833-4.756-6.211-8.107-6.211a6.35,6.35,0,0,0-1.144.1.829.829,0,1,0,.278,1.635ZM3.4,2.236A.821.821,0,0,0,2.236,3.4L4.77,5.922A11.948,11.948,0,0,0,2.065,9.845a.817.817,0,0,0,0,.654c1.651,3.833,4.756,6.211,8.107,6.211A7.568,7.568,0,0,0,14.3,15.451l2.648,2.656a.821.821,0,1,0,1.16-1.16Zm5.2,7.511,2,2a1.479,1.479,0,0,1-.425.057,1.635,1.635,0,0,1-1.635-1.635,1.479,1.479,0,0,1,.057-.425Zm1.577,5.328c-2.6,0-5.042-1.872-6.456-4.9a9.881,9.881,0,0,1,2.207-3.1L7.369,8.537a3.269,3.269,0,0,0,4.438,4.438l1.3,1.283a5.917,5.917,0,0,1-2.934.817Z" transform="translate(-1.996 -1.996)" fill="#565656"/>
</svg>
