<svg xmlns="http://www.w3.org/2000/svg" width="13.802" height="11.54" viewBox="0 0 13.802 11.54">
  <path id="reply" d="M.283,13.335a.284.284,0,0,0,.248-.146A7.409,7.409,0,0,1,7.012,9.368h.922v2.55a.283.283,0,0,0,.478.206l5.1-4.817a.284.284,0,0,0,0-.411l-5.1-4.817a.283.283,0,0,0-.478.206v2.55A7.984,7.984,0,0,0,0,12.808v.244a.283.283,0,0,0,.213.274A.279.279,0,0,0,.283,13.335ZM8.218,8.8H7.012a7.977,7.977,0,0,0-6.4,3.224A7.418,7.418,0,0,1,7.974,5.4h.244A.283.283,0,0,0,8.5,5.117V2.941l4.4,4.16-4.4,4.16V9.084A.283.283,0,0,0,8.218,8.8Z" transform="translate(0.1 -1.895)" fill="#565656" stroke="#565656" stroke-width="0.2"/>
</svg>
